<svg id="Layer_1" data-name="Layer 1" xmlns="http://www.w3.org/2000/svg" viewBox="0 0 154.43 162.78">
  <defs>
    <linearGradient id="metafuseGradient" x1="0%" y1="0%" x2="100%" y2="0%">
      <stop offset="0%" style="stop-color:#2f70c5;stop-opacity:1" />
      <stop offset="50%" style="stop-color:#4a8de8;stop-opacity:1" />
      <stop offset="100%" style="stop-color:#5ba3ff;stop-opacity:1" />
    </linearGradient>
  </defs>
  <polygon fill="url(#metafuseGradient)" points="62.61 66 79.04 55.56 96.26 66 115.3 54.52 92.09 40.3 81.13 47.61 67.96 39.13 43.83 54.13 18.78 44.35 37.17 32.74 49.96 40.56 60.13 34.56 47.22 26.48 79.17 7.3 112.7 27.39 102.26 28.7 79.44 14.74 58.44 27.26 65.09 31.96 79.7 22.96 91.3 30.26 84.26 35.09 79.56 31.96 72.65 36.65 81.26 42 104.87 27.13 109.17 26.48 112.96 27.59 100.34 35.61 108.31 40.84 121.37 32.8 140.28 44.35 140.28 66.91 127.04 74.87 127.3 86.87 127.04 109.96 114.91 117.91 114.91 108.39 119.35 105.65 119.48 97.3 111 102.78 111.26 128.61 133.96 114.52 133.96 88.44 124.56 95.09 124.44 89.74 140.28 78.65 139.7 117.91 105.91 139.3 106.11 99.88 119.31 91.96 119.41 61.83 100.34 73.3 100.34 94.21 83.31 104.38 83.41 127.76 108.36 112.5 109.04 121.6 98.09 127.86 97.99 144 79.53 155.25 60.33 144 60.52 128.05 50.74 122.19 50.54 137.84 18.78 118.56 18.78 76.7 50.45 96.55 46.14 99 24.91 86.58 24.52 114.26 45.65 127.17 46.04 119.05 31.27 109.86 31.27 95.09 39.1 99.98 39.1 105.95 45.95 109.86 45.85 96.85 47.22 96.46 49.11 96.33 50.41 96.44 50.67 112.76 75.13 127.7 75.13 104.41 58.08 93.91 58.47 73.56 39.29 61.63 39.49 92.15 31.57 87.75 31.57 75.33 18.78 66.91 18.78 44.28 41.15 49.7 43.52 52.51 43.6 53.78 62.61 66"/>
</svg>